<?xml version="1.0" encoding="utf-8"?>
<!-- Generator: Adobe Illustrator 25.0.1, SVG Export Plug-In . SVG Version: 6.00 Build 0)  -->
<svg version="1.1" xmlns="http://www.w3.org/2000/svg" xmlns:xlink="http://www.w3.org/1999/xlink" x="0px" y="0px"
	 viewBox="0 0 595.28 841.89" style="enable-background:new 0 0 595.28 841.89;" xml:space="preserve">
<style type="text/css">
	.st0{fill:#2386A5;}
	.st1{fill:url(#SVGID_1_);}
	.st2{fill:url(#SVGID_2_);}
	.st3{fill:url(#SVGID_3_);}
	.st4{fill:url(#SVGID_4_);}
	.st5{fill:#27AAE1;}
	.st6{fill:#FFFFFF;}
</style>
<g id="Layer_2">
	<path class="st0" d="M286.23,449.62h-83.7c-7.15,0-12.94-5.8-12.94-12.94v-83.7c0-7.15,5.8-12.94,12.94-12.94h83.7
		c7.15,0,12.94,5.8,12.94,12.94v83.7C299.18,443.83,293.38,449.62,286.23,449.62z"/>
</g>
<g id="Layer_3">
	<radialGradient id="SVGID_1_" cx="244.4767" cy="394.8272" r="53.1611" gradientUnits="userSpaceOnUse">
		<stop  offset="0.0195" style="stop-color:#1C75BC"/>
		<stop  offset="1" style="stop-color:#72C9B9"/>
	</radialGradient>
	<circle class="st1" cx="244.48" cy="394.83" r="53.16"/>
	<radialGradient id="SVGID_2_" cx="244.3827" cy="394.8272" r="45.0202" gradientUnits="userSpaceOnUse">
		<stop  offset="0.0195" style="stop-color:#1C75BC"/>
		<stop  offset="1" style="stop-color:#72C9B9"/>
	</radialGradient>
	<circle class="st2" cx="244.38" cy="394.83" r="45.02"/>
	<radialGradient id="SVGID_3_" cx="244.4767" cy="393.4174" r="40.0786" gradientUnits="userSpaceOnUse">
		<stop  offset="0.0195" style="stop-color:#1C75BC"/>
		<stop  offset="1" style="stop-color:#72C9B9"/>
	</radialGradient>
	<circle class="st3" cx="244.48" cy="393.42" r="40.08"/>
	<radialGradient id="SVGID_4_" cx="244.4767" cy="393.4174" r="14.6621" gradientUnits="userSpaceOnUse">
		<stop  offset="0.0195" style="stop-color:#1C75BC"/>
		<stop  offset="1" style="stop-color:#72C9B9"/>
	</radialGradient>
	<circle class="st4" cx="244.48" cy="393.42" r="14.66"/>
</g>
<g id="Layer_4">
	<path class="st5" d="M246.74,355.82l52.44,52.26v41.54h-47.75l-12.57-16.73l5.61-20.75l-3.49-5.38l-12.49-1.13l0.85-20.57
		c-2.82,0.44,15.13,16.48,15.13,16.48v-32.01L246.74,355.82z"/>
</g>
<g id="Layer_1">
	<circle class="st6" cx="244.48" cy="424.43" r="10.15"/>
	<rect x="240.99" y="370.3" class="st6" width="6.98" height="46.24"/>
	<path class="st6" d="M234.65,370.3h19.66c0.9,0,1.44-1,0.94-1.75l-9.83-14.71c-0.45-0.67-1.43-0.67-1.87,0l-9.83,14.71
		C233.21,369.29,233.75,370.3,234.65,370.3z"/>
	<path class="st6" d="M232.67,386.4c0,3.51-2.85,6.36-6.36,6.36c-1.38,0-2.65-0.44-3.69-1.18c-1.62-1.15-2.67-3.05-2.67-5.18
		c0-3.51,2.85-6.36,6.36-6.36S232.67,382.88,232.67,386.4z"/>
	<path class="st6" d="M240.99,412.09c-2.15,0-18.37,2.19-18.37-20.51c0,0,0.54-0.08,3.76,0.19c0.55,0.05,3.62-0.19,3.62-0.19
		s-2.53,13.74,10.99,13.74"/>
	<path class="st6" d="M261.77,383.39h-5.26c-1.04,0-1.88-0.84-1.88-1.88v-5.26c0-1.04,0.84-1.88,1.88-1.88h5.26
		c1.04,0,1.88,0.84,1.88,1.88v5.26C263.65,382.55,262.81,383.39,261.77,383.39z"/>
	<path class="st6" d="M247.97,395.58c4.12,0,8.54-3.16,8.54-12.19h5.26l0,0c0,14.91-7.96,18.16-13.8,18.16"/>
</g>
</svg>
